<?xml version="1.0" encoding="UTF-8" standalone="no"?>
<svg
   xmlns:dc="http://purl.org/dc/elements/1.1/"
   xmlns:cc="http://creativecommons.org/ns#"
   xmlns:rdf="http://www.w3.org/1999/02/22-rdf-syntax-ns#"
   xmlns:svg="http://www.w3.org/2000/svg"
   xmlns="http://www.w3.org/2000/svg"
   xmlns:sodipodi="http://sodipodi.sourceforge.net/DTD/sodipodi-0.dtd"
   xmlns:inkscape="http://www.inkscape.org/namespaces/inkscape"
   version="1.1"
   id="Layer_1"
   x="0px"
   y="0px"
   width="382"
   height="293"
   viewBox="0 0 382.0000000000002 292.9999999999994"
   enable-background="new 0 0 578 462"
   xml:space="preserve"
   inkscape:version="0.91 r13725"
   sodipodi:docname="Crown-3.svg"><metadata
     id="metadata8"><rdf:RDF><cc:Work
         rdf:about=""><dc:format>image/svg+xml</dc:format><dc:type
           rdf:resource="http://purl.org/dc/dcmitype/StillImage" /><dc:date>2016</dc:date><dc:creator><cc:Agent><dc:title>Lazur</dc:title></cc:Agent></dc:creator><dc:description>Original raster images of this series were uploaded by NicholasJudy456 to openclipart embedded in svg-s (416 in total).  This is one of the refixes upon request by the original author.</dc:description><dc:contributor><cc:Agent><dc:title /></cc:Agent></dc:contributor><dc:title></dc:title></cc:Work></rdf:RDF></metadata><defs
     id="defs6" /><sodipodi:namedview
     pagecolor="#ffffff"
     bordercolor="#666666"
     borderopacity="1"
     objecttolerance="10"
     gridtolerance="10"
     guidetolerance="10"
     inkscape:pageopacity="0"
     inkscape:pageshadow="2"
     inkscape:window-width="1366"
     inkscape:window-height="705"
     id="namedview4"
     showgrid="false"
     borderlayer="true"
     inkscape:showpageshadow="false"
     inkscape:zoom="1.89419795221843"
     inkscape:cx="191"
     inkscape:cy="146.5"
     inkscape:window-x="-8"
     inkscape:window-y="-8"
     inkscape:window-maximized="1"
     inkscape:current-layer="Layer_1"
     fit-margin-top="0"
     fit-margin-left="0"
     fit-margin-right="0"
     fit-margin-bottom="0"
     showguides="false"
     inkscape:guide-bbox="true"
     showborder="true" /><path
     style="fill:#fec80d"
     d="m 292.6430111958157,265.9118582121944 -127.5401522291587,-22.4804743666735 -126.75113710342225,-22.7463286489525 -5.32572150924863,-75.692388175918 -4.97172543916934,-75.33839210583352 -0.77713745740842,-0.69564365892663 -5.47022323677507,-2.44125962518342 -4.69308577936664,-1.74561596625679 -2.48732057711459,-3.63587783222502 -2.48732057711459,-3.63587783222502 -0.70559541936373,-3.88172029655979 -0.70559541936373,-3.88172029655982 3.88600177584496,-7.9827336304499 3.88600177584496,-7.98273363044993 6,0.55017348819485 9.5467036331815,1.60532505164002 3.54670363318148,1.05515156344524 4.36996303348522,6.19660248181487 4.35791059159293,7.25912887536967 -5.16202236602101,9.14756759409735 -5.14996992412871,8.08504120054255 7.85493524961514,37.1912050163817 8.51202236602002,37.8482921327936 0.65708711640488,0.657087116412 0.83839624787037,-0.9333333333362 12.64626492446966,-39.4333333333362 12.17264726435232,-39.54340321415202 0.36477858775307,-1.04340321415194 -6.95564825930353,-3.36492692451207 -6.95564825930353,-3.36492692451208 -0.63135333843536,-4.59166986133599 -0.63135333843535,-4.59166986133595 1.113817059833,-6.97119230764918 1.30929141885045,-7.13277417748492 7.4440722308439,-3.7906733273465 7.24859787182646,-3.62909145751081 7.9022421911516,3.97316965267072 7.9022421911516,3.97316965267072 0.65151221046827,5.28869598232498 1.18223703983618,9.33552965542222 0.53072482936794,4.04683367309722 -6.27097644110978,4.45316632690278 -7.0479769053788,4.99049020625077 -0.77700046426907,0.53732387934798 10.30399842870499,40.46267612065206 10.30399842870511,40.462676120652 2.306513948419,0 2.3065139484191,0 10.8348555495006,-37.9361985426066 10.6043874254405,-38.07634367485756 -4.2304681240601,-2.5175140438269 -8.75,-5.88711128253772 -4.75,-3.50974237096179 -0.00287396181,-6.03654504260473 -0.00287396181,-6.03654504260473 2.5930690852616,-6.10924071261192 2.5930690852615,-6.10924071261189 5.6598048765517,-2.68189119632411 5.6598048765516,-2.6818911963241 5.3864897180474,1.041131908936 5.6417908574064,1.04113190893599 8.3301347240096,8.84491267842009 8.0748335846505,8.84491267842009 -2.4574829672999,8.0021556884478 -2.4574829672999,8.0021556884478 -6.9458460508512,3.06791283338953 -6.9458460508512,3.06791283338949 17.5047842492379,40.81976513955306 17.7859666379353,41.1009475282505 16.6819203268562,-34.8815256442189 16.6545886544714,-35.77748087744594 -3.8373327484826,-3.1032206955915 -4.0911834647953,-2.48844785106199 -2.4580522952877,-4.8063193428325 -2.4580522952877,-4.80631934283241 1.0453850437704,-7.51604014183363 1.0453850437703,-7.8490231845783 6.8660248056969,-5.42297806248314 6.8660248056969,-5.08999501973847 10.3177663601699,4.51246204635141 10.6193154669497,4.81401115312704 2.3176090718728,10.09975972830708 2.016059965093,9.79821062153143 -3.5401087389512,5.82764757116604 -3.5401087389513,5.82764757116604 -4.7112914987883,0.69403477003812 -6.33358167735,1.30546820132469 -1.6222901785618,0.61143343128657 12.1988525803714,40.89685484961456 12.1988525803714,40.8968548496146 19.1456653890929,-34.8452851451274 19.145665389093,-34.84528514512749 -5.8180872741134,-3.67869431108373 -5.8180872741133,-3.67869431108369 -0.6541405167892,-1.70466286164121 -0.6541405167892,-7.2996908302339 0,-5.59502796859276 3.6085335561077,-5.23942986906951 3.6085335561078,-5.2394298690695 6.573005869867,-1.14463951054927 6.5730058698672,-1.14463951054924 7.8685474992564,7.86854749925606 7.8685474992564,7.86854749925612 -2.6589923970908,7.17357308856073 -2.6589923970906,7.17357308856073 -5.1410945281406,3.13835495078 -5.3939032212215,3.35490625504811 4.2039595577638,40.11015950398005 4.4567682508449,39.8936081997119 1.7230395804781,1.2599173022974 1.9318899169155,1.0202497738724 23.2364356982089,-32.1245698907693 23.0275853617715,-31.8849023623443 -4.6634348364506,-3.2014194483173 -4.6634348364509,-3.2014194483173 -2.1905564294287,-5.9136781893384 -2.1905564294289,-5.91367818933836 -0.059443570571,-4.53416016464166 -0.059443570571,-4.53416016464172 5.3330378325662,-5.26679148696596 5.3330378325663,-5.26679148696599 8.5962825252237,2.15601075129447 8.5962825252238,2.15601075129446 5.1011243281011,8.31822438746592 5.1011243281011,8.31822438746588 -1.6406847511389,6.53159826490816 -1.6406847511389,6.531598264908 -6.9026193428345,2.708149743148 -7.7878475590578,3.7951182479392 -28.4172096029167,74.0869685047913 -28.208901179879,74.75 -0.6769197931854,1.75 z"
     id="path4547"
     inkscape:connector-curvature="0"
     sodipodi:nodetypes="ccccccccccccccccccccccccccccccccccccccccccccccccccccccccccccccccccccccccccccccccccccccccccccccccccccccccccccccccccccccccccccccccccccc" /></svg>